<svg aria-hidden="true" style="position:absolute;width:0;height:0;overflow:hidden" xmlns="http://www.w3.org/2000/svg"><defs><symbol id="icon-antenna" viewBox="0 0 32 32"><path fill="#212121" style="fill:var(--color1, #212121)" d="m30.77 22.1-8.44-8.5.94-4.62a2 2 0 0 0 .75.14h.04a2.16 2.16 0 1 0-2.03-1.42l-4.97.6L8.97.16A.53.53 0 0 0 8.6 0a.54.54 0 0 0-.38.16l-1.5 1.5a.54.54 0 0 0 0 .75l.8.83a14.9 14.9 0 0 0 2.52 17.66.49.49 0 0 0 .15.1 2.99 2.99 0 0 0-.05.54v6.2h-6.4a2.67 2.67 0 0 0-2.67 2.66v1.07c0 .3.24.53.54.53h24.53a.53.53 0 0 0 .53-.53V30.4a2.67 2.67 0 0 0-2.66-2.67h-6.4V25a14.78 14.78 0 0 0 10.16-1.5l-.07.04.81.82a.53.53 0 0 0 .38.16.54.54 0 0 0 .37-.15l1.52-1.5a.54.54 0 0 0 0-.76zM23.28 6.23a1.07 1.07 0 1 1 .75 1.83 1.07 1.07 0 0 1-.75-1.83zm-1.26 3.5-.6 2.95-1.17-1.18 1.78-1.76zm-.6-.9-1.92 1.91L18 9.25l3.4-.41zM24 28.8a1.6 1.6 0 0 1 1.6 1.6v.53H2.14v-.53a1.6 1.6 0 0 1 1.6-1.6H24zm-7.46-2.13v1.06H11.2v-1.06h5.34zM11.2 25.6v-4.05c0-1.3 1.2-2.35 2.67-2.35s2.67 1.05 2.67 2.35v4.05H11.2zm6.4-1.7v-2.35c0-1.89-1.67-3.42-3.73-3.42h-.06a3.8 3.8 0 0 0-3.21 1.78v.01a13.82 13.82 0 0 1-3.82-9.55c0-2.31.57-4.5 1.57-6.41l-.04.07 18.6 18.71a13.63 13.63 0 0 1-9.4 1.15l.1.02zm11.3-.68L7.83 2.04l.75-.75 7.93 7.98h.01l13.12 13.2-.76.75z"/><path fill="#2196f3" style="fill:var(--color2, #2196f3)" d="M13.88 20.27h-.01a1.6 1.6 0 0 0 0 3.2 1.6 1.6 0 0 0 0-3.2zm.37 1.97a.53.53 0 1 1-.38-.9.53.53 0 0 1 .37.9h.01z"/></symbol><symbol id="icon-astronaut" viewBox="0 0 32 32"><path fill="#2196f3" style="fill:var(--color2, #2196f3)" d="M31.97 4.52a.54.54 0 0 0-.42-.36l-1.92-.28-.85-1.73c-.18-.36-.78-.36-.96 0l-.85 1.73-1.91.28a.53.53 0 0 0-.3.91l1.38 1.35-.32 1.9a.53.53 0 0 0 .77.56l1.71-.9 1.7.9a.53.53 0 0 0 .78-.56l-.32-1.9 1.38-1.35a.54.54 0 0 0 .13-.55zm-2.46 1.33a.53.53 0 0 0-.15.47l.19 1.12-1-.53a.53.53 0 0 0-.5 0l-1 .53.2-1.12a.53.53 0 0 0-.16-.47l-.81-.79 1.12-.16a.53.53 0 0 0 .4-.3l.5-1 .5 1a.53.53 0 0 0 .4.3l1.12.16-.8.8zm-3.38 14.67h-1.06v1.07h1.06v-1.07zm0 2.14h-1.06v1.06h1.06v-1.06zm1.07-1.07h-1.07v1.07h1.07v-1.07zm-2.13 0H24v1.07h1.07v-1.07zm-2.67 4.8h-1.07v1.07h1.07v-1.07zm0 2.13h-1.07v1.07h1.07v-1.07zm1.07-1.06H22.4v1.06h1.07v-1.06zm-2.14 0h-1.06v1.06h1.06v-1.06zM16 24.26h-1.07v1.06H16v-1.06zm0 2.13h-1.07v1.07H16v-1.07zm1.07-1.07H16v1.07h1.07v-1.07zm-2.14 0h-1.06v1.07h1.06v-1.07zM5.87 6.12H4.8V7.2h1.07V6.12zm0 2.14H4.8v1.06h1.07V8.26zm1.06-1.07H5.87v1.07h1.06V7.19zm-2.13 0H3.73v1.07H4.8V7.19z"/><path fill="#212121" style="fill:var(--color1, #212121)" d="M24.71 14.16a1.77 1.77 0 0 0-1.17-.7h-.01a1.77 1.77 0 0 0-1.35.35l-1.25.96-1.9 1.42-1.35-.55A6.94 6.94 0 0 0 14.83 2.4a6.95 6.95 0 0 0-6.96 6.93c0 1.39.41 2.68 1.12 3.76l-2.77-.02H6.2a.51.51 0 0 0-.16.04h-.03l-.02.02-3.24 1.6-1.9.9a.5.5 0 0 0-.06.04 1.78 1.78 0 0 0-.59 2.3c.22.42.59.73 1.04.88h.01a1.77 1.77 0 0 0 1.39-.13l1.38-.73 2.26-1.17 1.36-.01L2.2 22.2.86 23.55a1.64 1.64 0 0 0-.5 1.17 1.67 1.67 0 0 0 1.67 1.67 1.67 1.67 0 0 0 1.19-.49l1.31-1.3 1.74-1.3.9.9-3.1 3.08a1.64 1.64 0 0 0-.5 1.17 1.66 1.66 0 0 0 1.68 1.67 1.67 1.67 0 0 0 1.18-.48l4.49-4.48.02-.01 5.16-5.66 3.47.5a.47.47 0 0 0 .27-.04l.05-.02.05-.03 3.22-2.13.03-.03.04-.03 1.27-1.19a1.77 1.77 0 0 0 .2-2.36h.01zM2.14 17.77a.7.7 0 0 1-.56.05.72.72 0 0 1-.21-1.26l1.31-.63.32.92.13.4-1 .52zm3.5-1.83-1.55.8-.26-.74-.18-.54 2.03-1-.04 1.48zm15.1-6.62a5.8 5.8 0 0 1-.6 2.56l-4.18-1.9a1.86 1.86 0 0 0-.79-1.38l1.46-4.87a5.88 5.88 0 0 1 4.1 5.6zm-11.8 0a5.89 5.89 0 0 1 6.65-5.81l-1.44 4.75h-.05a1.87 1.87 0 0 0-1.88 1.86A1.87 1.87 0 0 0 14.1 12c.7 0 1.3-.38 1.62-.94l3.86 1.75a5.9 5.9 0 0 1-4.74 2.39 5.89 5.89 0 0 1-5.9-5.87zm5.96.8a.8.8 0 0 1-.8.8.8.8 0 0 1-.8-.8c0-.44.35-.8.8-.8s.8.36.8.8zM2.46 25.15a.6.6 0 0 1-.85 0 .6.6 0 0 1 0-.85l.96-.96.85.85-.96.96zm3.22 3.73a.6.6 0 0 1-.86 0 .6.6 0 0 1 0-.84l.97-.96.85.85-.96.95zm3.48-3.47-1.77 1.76-.85-.85 1.77-1.75a.53.53 0 0 0 .09-.14l.02-.04c.02-.04.02-.08.03-.13l.01-.07-.02-.1c0-.04 0-.07-.02-.1a.54.54 0 0 0-.09-.14l-.02-.04-1.61-1.6-.06-.04a.5.5 0 0 0-.08-.05.53.53 0 0 0-.1-.04.5.5 0 0 0-.1-.02h-.03a.6.6 0 0 0-.07 0l-.1.03a.5.5 0 0 0-.1.04l-.06.03-1.77 1.33-.9-.9 2.4-2.38 4.36 4.28-.93.92zm6.82-7.02h-.07a.56.56 0 0 0-.1.01.48.48 0 0 0-.18.07.5.5 0 0 0-.08.06l-.04.03-4.7 5.15-4.33-4.26 2.84-2.81a.54.54 0 0 0-.38-.92l-2.22.02.03-1.61 3.1.03a6.93 6.93 0 0 0 4.98 2.1c.44 0 .86-.05 1.28-.12l.13.08 2.4.96.16.76.18.88-3-.42zm4.04.18-.31-1.56 1.44-1.08.95 1.26-2.08 1.38zm3.75-2.83-.83.79-.94-1.24.84-.64a.73.73 0 0 1 .54-.14.72.72 0 0 1 .62.71.71.71 0 0 1-.23.52z"/><path fill="#212121" style="fill:var(--color1, #212121)" d="m13.6 18.54-2.14-2.13a.53.53 0 0 0-.75 0l-2.15 2.13a.54.54 0 0 0 0 .76l2.15 2.13a.53.53 0 0 0 .75 0l2.14-2.13a.53.53 0 0 0 0-.76zm-2.52 1.76L9.7 18.92l1.38-1.38 1.39 1.38-1.39 1.38zm6.08-15.23-.25 1.04c.07.02 1.73.45 1.73 2.15h1.07c0-2.02-1.66-2.97-2.55-3.19zm2.55 4.25h-1.07v1.07h1.07V9.32z"/></symbol><symbol id="icon-clock" viewBox="0 0 32 32"><path fill="#212121" style="fill:var(--color1, #212121)" d="M31.3 15.3a15.3 15.3 0 1 0-20.07 14.55l.1.03a.67.67 0 0 0 .54-.06.64.64 0 0 0 .28-.36L16 17.21a1.91 1.91 0 1 0-.85-3.63h.01l-5.1-5.11a.64.64 0 0 0-.9.9l5.1 5.11a1.85 1.85 0 0 0-.2.83c0 .6.29 1.13.73 1.48l-3.68 11.67a14.04 14.04 0 1 1 10.66-.38l-.09.03-.4-1.87a.64.64 0 0 0-1.05-.34l-3.83 3.42a.64.64 0 0 0 .22 1.09l4.9 1.56a.64.64 0 0 0 .83-.74l-.4-1.84a15.29 15.29 0 0 0 9.33-14.06v-.03zM16 14.66a.64.64 0 0 1 0 1.28.64.64 0 0 1 0-1.28zm2.1 14.87 2.18-1.95.6 2.84-2.79-.9z"/><path fill="#2196f3" style="fill:var(--color2, #2196f3)" d="M15.35 3.19v1.27a.64.64 0 0 0 1.28 0V3.19a.64.64 0 1 0-1.28 0zM3.88 14.66a.64.64 0 0 0 0 1.28h1.27a.64.64 0 0 0 0-1.28H3.88zm24.23 1.28a.64.64 0 0 0 0-1.28h-1.28a.64.64 0 0 0 0 1.28h1.28z"/></symbol><symbol id="icon-company1" viewBox="0 0 57 32"><path d="M20.27 3.73 24 7.27h-6.93v17.16H35.2v-6.56l3.73 3.53V3.73H20.27zm14.77 13.72L24.44 7.42h10.6v10.04zm-3.3 4.47h-11.8V10.38h.83v10.76h10.98v.78zm-9.01 4.8-.44.9-.44-.9h-.36l.63 1.2v.7h.34v-.7l.63-1.2h-.36zm.54 1.9.16-.45h.73l.16.45h.34l-.72-1.9h-.3l-.7 1.9h.33zm.52-1.5.28.79h-.55l.28-.79zm1.74.74a.42.42 0 0 0-.07.24c0 .16.06.3.17.4s.26.14.45.14a.78.78 0 0 0 .48-.15l.11.13h.37l-.28-.33a.95.95 0 0 0 .16-.58h-.27a.77.77 0 0 1-.08.35l-.37-.43.13-.1a.72.72 0 0 0 .2-.2.41.41 0 0 0 .06-.21v-.01a.39.39 0 0 0-.13-.3.48.48 0 0 0-.32-.12h-.02c-.16 0-.28.05-.37.13s-.13.2-.13.35c0 .07.01.13.04.2.03.06.08.14.16.23a1.13 1.13 0 0 0-.29.26zm.86.42a.48.48 0 0 1-.3.11h-.02a.31.31 0 0 1-.2-.08.29.29 0 0 1-.1-.2v-.02c0-.1.06-.19.16-.27l.04-.03.42.5zm-.34-.84c-.1-.1-.14-.2-.14-.27 0-.06.02-.12.06-.16a.18.18 0 0 1 .14-.06h.01c.05 0 .1.02.14.05a.17.17 0 0 1 .05.13.23.23 0 0 1-.08.18l-.04.03-.14.1zm3.08 1.03a.69.69 0 0 0 .23-.47h-.33c-.02.13-.06.23-.13.29s-.16.09-.29.09c-.14 0-.25-.06-.32-.17s-.11-.26-.11-.46v-.17c0-.2.04-.36.12-.46a.39.39 0 0 1 .33-.16c.12 0 .22.03.28.1s.1.15.12.29h.33c-.02-.21-.1-.37-.23-.49s-.3-.17-.5-.17a.72.72 0 0 0-.68.42c-.06.14-.1.3-.1.46v.2c0 .17.03.33.1.46s.15.23.26.3a.75.75 0 0 0 .4.11c.22 0 .4-.05.52-.17zm1.94-.26c.06-.14.1-.3.1-.5v-.12c0-.17-.04-.33-.1-.47a.73.73 0 0 0-.28-.31c-.12-.08-.26-.12-.41-.12s-.3.04-.41.12a.74.74 0 0 0-.28.32 1.14 1.14 0 0 0-.1.47v.12c0 .19.04.35.1.49a.75.75 0 0 0 .28.32.76.76 0 0 0 .41.11.76.76 0 0 0 .41-.11.74.74 0 0 0 .28-.32zm-.35-1.08c.08.12.11.28.11.49v.1c0 .21-.03.37-.11.49a.39.39 0 0 1-.34.16h-.01a.4.4 0 0 1-.33-.17.82.82 0 0 1-.12-.48v-.11c0-.2.04-.36.12-.47a.39.39 0 0 1 .32-.17h.02a.39.39 0 0 1 .33.17z"/></symbol><symbol id="icon-company2" viewBox="0 0 57 32"><path d="M26.73 3.17h-.08a7.54 7.54 0 0 0-.33-.02h-.24c-.22 0-.43 0-.65.02h-.05a15 15 0 0 0-5.7 1.47l.1-.04-.23.11v11.81l.54-.18a20.64 20.64 0 0 1 1.5-.45 17.82 17.82 0 0 1 4.3-.57h.01v1.55c-.19 0-.38 0-.56.02h-.05c-1.21.06-2.35.25-3.44.53l.12-.02c-1.5.38-2.82.9-4.05 1.58l.1-.04V3.79a15.49 15.49 0 0 1 4.03-1.66l.11-.03a15.54 15.54 0 0 1 3.91-.5h.23c.28 0 .54.02.8.04.65.04 1.3.15 1.94.3v1.53a11.49 11.49 0 0 0-1.85-.28h-.08l-.38-.02zm2.69 1.56c.33.02.68.03 1.04.03a16.84 16.84 0 0 0 4.23-.55l-.12.03a16.9 16.9 0 0 0 4.05-1.6l-.1.05v14.88a15.56 15.56 0 0 1-4.03 1.66l-.11.03c-1.18.31-2.52.5-3.91.5h-.1a12 12 0 0 1-2.96-.37l.08.02V4.44a11.6 11.6 0 0 0 1.92.28zm7.56.11-.53.18a17.82 17.82 0 0 1-5.98 1.02c-.36 0-.69 0-1-.02l-.43-.03v12.15l.37.03c.34.03.7.04 1.05.04a14.37 14.37 0 0 0 3.63-.48l-.1.03a14.67 14.67 0 0 0 2.85-1.03l-.09.04.23-.12V4.85zM19.06 24.11a.8.8 0 0 0-.57-.24h-.04a.89.89 0 0 0-.34.07.79.79 0 0 0-.44.44.87.87 0 0 0-.06.34v2.02a.96.96 0 0 0 .08.42.8.8 0 0 0 .2.27.71.71 0 0 0 .28.14c.1.03.2.05.3.05a.85.85 0 0 0 .84-.86v-.22h-.53v.19c0 .06-.02.12-.04.17a.32.32 0 0 1-.07.11.37.37 0 0 1-.22.08.27.27 0 0 1-.25-.1v-.01a.48.48 0 0 1-.07-.25v-1.91a.64.64 0 0 1 .06-.3.27.27 0 0 1 .23-.12h.04c.1 0 .18.04.23.11a.42.42 0 0 1 .09.26v.19h.52v-.22a.96.96 0 0 0-.07-.35.84.84 0 0 0-.17-.28zm3.14-.02a.92.92 0 0 0-.92-.16.84.84 0 0 0-.48.44.94.94 0 0 0-.08.4v1.94a.93.93 0 0 0 .08.4.77.77 0 0 0 .2.26.84.84 0 0 0 .28.17.91.91 0 0 0 .92-.17.83.83 0 0 0 .2-.27.93.93 0 0 0 .08-.4v-1.95a.95.95 0 0 0-.08-.38.88.88 0 0 0-.2-.28zm-.25 2.62v.03a.35.35 0 0 1-.1.25.39.39 0 0 1-.5 0 .34.34 0 0 1-.1-.25v-2c0-.1.04-.2.1-.25a.39.39 0 0 1 .5 0 .34.34 0 0 1 .1.25v1.97zm4.38.86V23.9h-.5l-.68 1.94-.68-1.94h-.5v3.67h.52v-2.23h.01l.52 1.58h.26l.52-1.58v2.23h.53zm2.98-3.41a.73.73 0 0 0-.3-.2 1.15 1.15 0 0 0-.36-.06h-.8v3.67h.53v-1.43h.27a.97.97 0 0 0 .47-.1.78.78 0 0 0 .28-.28.9.9 0 0 0 .13-.32 2.56 2.56 0 0 0 .02-.39v-.03a2.1 2.1 0 0 0-.05-.52.79.79 0 0 0-.19-.34zm-.27 1.12a.45.45 0 0 1-.05.2v-.01a.3.3 0 0 1-.13.13.53.53 0 0 1-.22.04h-.27V24.4h.3a.5.5 0 0 1 .21.05.3.3 0 0 1 .12.13.54.54 0 0 1 .05.21v.5zm2.75-1.38h-.43l-.8 3.67h.52l.15-.78h.71l.16.78h.52l-.83-3.67zm-.48 2.38.26-1.33.26 1.33h-.52zm3.86-.17-.8-2.21h-.5v3.67h.52v-2.2h.01l.8 2.2h.5V23.9h-.53v2.21zm3.2-2.21-.42 1.46h-.01l-.42-1.46h-.56l.72 2.12v1.55h.53v-1.55l.72-2.12h-.56zM17.6 28.6h.25v.7h.17v-.7h.25v-.14h-.67v.14zm2.12-.14-.33.85h.18l.07-.2h.34l.07.2h.2l-.35-.85h-.18zm-.03.51.12-.31.12.31h-.24zm2.13.02h.2v.11a.33.33 0 0 1-.2.08h-.02a.22.22 0 0 1-.17-.09.35.35 0 0 1-.06-.2v-.02c0-.19.08-.28.24-.28h.02a.18.18 0 0 1 .18.13l.17-.03c-.04-.16-.16-.25-.37-.25a.43.43 0 0 0-.3.11.41.41 0 0 0-.12.33v.02c0 .11.04.22.11.3a.41.41 0 0 0 .3.12h.03a.51.51 0 0 0 .36-.13v-.34h-.37V29zm2.14-.53h-.17v.85h.6v-.15h-.43v-.7zm1.81 0h-.17v.85h.17v-.85zm1.77.57-.35-.57h-.17v.85h.16v-.56l.35.56h.17v-.85h-.16v.57zm1.6-.1h.42v-.14h-.42v-.19h.46v-.15h-.63v.86h.64v-.15h-.47v-.23zm3.88-.14h-.34v-.33h-.17v.85h.17v-.37h.34v.37h.17v-.85h-.17v.33zm1.6.14h.44v-.14h-.43v-.19h.46v-.15h-.63v.86h.65v-.15h-.48v-.23zm2.2 0c.14-.02.22-.1.22-.23v-.03a.2.2 0 0 0-.09-.16.48.48 0 0 0-.22-.05h-.39v.85h.17v-.36h.05c.03 0 .07 0 .1.02a.18.18 0 0 1 .05.06l.19.27h.2l-.1-.16a.6.6 0 0 0-.19-.2zm-.18-.11h-.13v-.22h.17c.05 0 .1 0 .14.02.02.02.04.05.04.09a.11.11 0 0 1-.05.09.46.46 0 0 1-.14.02h-.03zm1.82.11h.42v-.14h-.42v-.19h.46v-.15h-.63v.86h.64v-.15h-.47v-.23z"/></symbol><symbol id="icon-company3" viewBox="0 0 57 32"><path d="M19.42 26.19a.07.07 0 0 1 .04.01l.12.12a.96.96 0 0 1-.33.2 1.25 1.25 0 0 1-.43.08h-.03a1.21 1.21 0 0 1-.44-.07.96.96 0 0 1-.33-.2.9.9 0 0 1-.2-.3 1.02 1.02 0 0 1-.08-.39v-.03c0-.27.11-.52.3-.68a1.06 1.06 0 0 1 .35-.2c.14-.06.3-.08.45-.08h.03c.14 0 .27.03.4.07h-.01c.11.04.22.1.31.18l-.1.11a.12.12 0 0 1-.02.02.06.06 0 0 1-.04.01.1.1 0 0 1-.04 0L19.3 25l-.07-.04a.82.82 0 0 0-.22-.07 1 1 0 0 0-.17-.02h-.02a.96.96 0 0 0-.32.06.73.73 0 0 0-.25.15.67.67 0 0 0-.16.23.77.77 0 0 0-.06.3v.02c0 .12.02.22.06.32a.7.7 0 0 0 .16.23.66.66 0 0 0 .24.15.89.89 0 0 0 .3.05l.18-.01a.7.7 0 0 0 .38-.17.09.09 0 0 1 .06-.01zm3.35-.56v.01a.96.96 0 0 1-.08.39.86.86 0 0 1-.21.3 1.01 1.01 0 0 1-.34.2 1.4 1.4 0 0 1-.9 0 1.02 1.02 0 0 1-.33-.2.9.9 0 0 1-.22-.3v-.01a1.02 1.02 0 0 1 0-.8v.01a.93.93 0 0 1 .22-.3c.1-.1.21-.16.34-.2a1.38 1.38 0 0 1 .9 0h-.02c.13.04.25.11.35.2a.9.9 0 0 1 .3.7zm-.3 0v-.02a.81.81 0 0 0-.06-.3.66.66 0 0 0-.4-.38 1.03 1.03 0 0 0-.65 0h.01a.68.68 0 0 0-.25.15.63.63 0 0 0-.15.23.91.91 0 0 0 0 .64.65.65 0 0 0 .4.38c.2.07.44.07.65 0a.69.69 0 0 0 .24-.15.66.66 0 0 0 .16-.23.82.82 0 0 0 .05-.32zm2.6.33.03.07c0-.03.02-.05.03-.07a.94.94 0 0 1 .04-.07l.74-1.17.04-.04h.29v1.9h-.26v-1.53l-.75 1.2a.11.11 0 0 1-.05.04.13.13 0 0 1-.06.01h-.05a.13.13 0 0 1-.06-.01.11.11 0 0 1-.04-.05l-.77-1.2v1.54h-.25v-1.9h.28a.09.09 0 0 1 .04.03l.76 1.18.04.07zm2.8-.1v.72h-.3v-1.9h.65c.13 0 .25 0 .36.04a.72.72 0 0 1 .26.12.5.5 0 0 1 .14.18.58.58 0 0 1 .06.25.53.53 0 0 1-.21.43.76.76 0 0 1-.26.13 1.2 1.2 0 0 1-.33.04h-.37zm0-.2h.35a.82.82 0 0 0 .22-.03.49.49 0 0 0 .17-.08.36.36 0 0 0 .13-.28v-.03a.33.33 0 0 0-.03-.14.37.37 0 0 0-.1-.12.62.62 0 0 0-.35-.1h-.4v.78zm3.9.92h-.23a.11.11 0 0 1-.06-.02.12.12 0 0 1-.04-.04l-.2-.46h-.99l-.2.46a.11.11 0 0 1-.1.06h-.24l.88-1.9h.3l.88 1.9zm-1.44-.7h.82l-.34-.78a1.33 1.33 0 0 1-.07-.18l-.03.1a.65.65 0 0 1-.04.08l-.34.77zm2.7-1.2a.12.12 0 0 1 .04.04l1.28 1.44v-1.49h.26v1.91h-.15a.14.14 0 0 1-.06 0 .17.17 0 0 1-.05-.04l-1.27-1.44v1.48h-.26v-1.9h.16a.15.15 0 0 1 .05 0zm3.72 1.14v.76h-.3v-.76l-.8-1.15h.27a.1.1 0 0 1 .06.02.17.17 0 0 1 .03.04l.5.75a1.12 1.12 0 0 1 .1.17l.03-.09a.63.63 0 0 1 .05-.08l.5-.75a.2.2 0 0 1 .04-.04.1.1 0 0 1 .05-.02h.27l-.8 1.16zm-11.83-4.35.39.04c1.96-.77 3.62-2.02 4.77-3.6s1.74-3.4 1.7-5.28l-2.17-1.87c.44 1.98.24 4.04-.6 5.93s-2.24 3.55-4.09 4.78z"/><path d="m24.15 21.38.06.01c1.97-1.22 3.48-2.94 4.32-4.92s.98-4.13.4-6.18l-3.08-2.68a11.48 11.48 0 0 1 1.45 7.1c-.3 2.44-1.4 4.75-3.15 6.67zm10.45-6.54a9.62 9.62 0 0 1-3.63 5.28c-.5.38-1.06.73-1.65 1.04l-.07.03c1.49-.38 2.86-1.05 4-1.97s2.03-2.04 2.6-3.3l-1.25-1.08z"/><path d="m34.1 14.54-1.77-1.55c-.04 1.77-.61 3.49-1.67 4.99s-2.56 2.73-4.35 3.56c.4 0 .8-.02 1.2-.06 1.67-.6 3.15-1.54 4.3-2.75s1.94-2.65 2.3-4.19zm-9.7-8.05-2.1-1.86c-1.9.64-3.53 1.76-4.68 3.21a8 8 0 0 0-1.78 4.95c0 1.95.76 3.84 2.15 5.38a10.34 10.34 0 0 0 5.5 3.1c1.94-2.06 3.08-4.6 3.25-7.26s-.65-5.3-2.32-7.53zM39 14.24c0-2.31-1.06-4.53-2.95-6.17s-4.44-2.56-7.1-2.57h-.02a11.28 11.28 0 0 0-3.66.61l.08-.02 12.99 11.28a7.54 7.54 0 0 0 .67-3.13z"/></symbol><symbol id="icon-company4" viewBox="0 0 57 32"><path d="M12.88 11.26c-1.28 0-2.32.92-2.32 2.05 0 1.14 1.04 2.06 2.32 2.06 1.28 0 2.31-.92 2.31-2.05 0-1.14-1.03-2.06-2.31-2.06zm17.1-.66c-.01-1.58-.72-3.1-1.98-4.21s-2.95-1.75-4.73-1.75c-1.78 0-3.48.63-4.74 1.75s-1.96 2.63-1.96 4.2v8.71s13.4-1.33 13.4-8.7zM5.86 22.16c0 1.1.5 2.15 1.37 2.93a5 5 0 0 0 6.59 0 3.95 3.95 0 0 0 1.37-2.93V16.1s-9.33.93-9.33 6.06zm4.66 1.08c-.24 0-.48-.06-.68-.18a1.14 1.14 0 0 1-.44-.48.95.95 0 0 1-.08-.64c.05-.2.17-.4.34-.55s.39-.25.62-.3a1.36 1.36 0 0 1 .72.07c.22.08.41.22.55.4s.2.38.2.6a.96.96 0 0 1-.09.42 1.1 1.1 0 0 1-.26.35 1.32 1.32 0 0 1-.87.32zm9.43-.6h-.9v.94h-.47V21.3h1.48v.38h-1.01v.59h.9v.38zm2.25-.15c0 .23-.04.42-.12.59a.9.9 0 0 1-.83.53h-.02a.94.94 0 0 1-.5-.14.92.92 0 0 1-.34-.38 1.32 1.32 0 0 1-.13-.57v-.12c0-.23.04-.43.12-.6a.9.9 0 0 1 .35-.4 1 1 0 0 1 1 .01.89.89 0 0 1 .35.4c.08.16.12.36.12.58v.1zm-.48-.1a.96.96 0 0 0-.12-.55.42.42 0 0 0-.35-.18h-.04a.42.42 0 0 0-.34.18.95.95 0 0 0-.13.54v.11c0 .23.04.41.12.54s.21.2.37.2h.02a.41.41 0 0 0 .34-.19c.09-.12.13-.3.13-.54v-.11zm2 .59v-.01a.24.24 0 0 0-.1-.2 1.19 1.19 0 0 0-.33-.14 2.4 2.4 0 0 1-.4-.16h.01c-.26-.14-.39-.33-.39-.56 0-.13.04-.24.1-.33a.7.7 0 0 1 .3-.23 1.13 1.13 0 0 1 .44-.08c.17 0 .31.03.44.09a.68.68 0 0 1 .3.25.65.65 0 0 1 .1.36h-.47a.3.3 0 0 0-.1-.24.4.4 0 0 0-.27-.09.43.43 0 0 0-.27.08.23.23 0 0 0-.1.18v.01c0 .07.04.14.12.19.07.05.18.1.33.14.26.08.46.18.58.3s.18.26.18.44c0 .2-.07.35-.22.46s-.35.17-.6.17c-.18 0-.34-.03-.48-.1a.77.77 0 0 1-.33-.26.67.67 0 0 1-.11-.37v-.02h.47c0 .25.15.38.45.38a.44.44 0 0 0 .26-.07.22.22 0 0 0 .09-.18zm2.5-1.3h-.7v1.9h-.46v-1.9h-.7v-.38h1.86v.38zm1.64.91h-.9v.61h1.05v.38H26.5V21.3h1.52v.38h-1.05v.54h.9v.37zm1.27.15h-.37v.84h-.47V21.3h.84c.27 0 .48.06.63.18s.22.29.22.5a.7.7 0 0 1-.1.4.69.69 0 0 1-.3.24h-.01l.5.93v.03h-.51l-.43-.84zm-.37-.38h.38a.39.39 0 0 0 .27-.08.32.32 0 0 0 .1-.24v-.01c0-.11-.03-.2-.1-.26s-.15-.09-.27-.09h-.38v.69zm2.84.42v.8h-.47V21.3h.89c.17 0 .32.03.45.1a.7.7 0 0 1 .3.26.75.75 0 0 1 .1.4.66.66 0 0 1-.23.52.96.96 0 0 1-.63.2h-.41zm0-.38h.42c.12 0 .22-.03.28-.1a.32.32 0 0 0 .1-.24v-.02a.37.37 0 0 0-.1-.25.37.37 0 0 0-.27-.1h-.43v.7zm2.96.2h-.9v.6h1.06v.38H33.2V21.3h1.52v.38h-1.06v.54h.9v.37zm2.18-.92h-.7v1.9h-.47v-1.9h-.68v-.38h1.85v.38zm1.64.91h-.9v.61h1.05v.38h-1.52V21.3h1.52v.38H37.5v.54h.9v.37zm1.27.15h-.37v.84h-.47V21.3h.85c.26 0 .47.06.62.18s.22.29.22.5a.7.7 0 0 1-.1.4.69.69 0 0 1-.3.24h-.01l.5.93v.03h-.51l-.43-.84zm-.37-.38h.37c.12 0 .21-.02.28-.08a.32.32 0 0 0 .1-.24v-.01a.34.34 0 0 0-.1-.26c-.06-.06-.15-.09-.28-.09h-.37v.68zm2.75.62v-.01a.24.24 0 0 0-.1-.2 1.19 1.19 0 0 0-.33-.14 2.4 2.4 0 0 1-.4-.16h.01c-.25-.14-.38-.33-.38-.56 0-.13.03-.24.1-.33a.7.7 0 0 1 .3-.23 1.13 1.13 0 0 1 .44-.08 1 1 0 0 1 .43.09.68.68 0 0 1 .3.25.65.65 0 0 1 .1.36h-.47a.3.3 0 0 0-.1-.24.4.4 0 0 0-.27-.09.43.43 0 0 0-.27.08.23.23 0 0 0-.1.18v.01c0 .07.04.14.12.19s.18.1.33.14c.26.08.46.18.58.3s.18.26.18.44c0 .2-.07.35-.22.46s-.35.17-.6.17c-.18 0-.34-.03-.48-.1a.77.77 0 0 1-.33-.26.67.67 0 0 1-.11-.37v-.02h.47c0 .25.15.38.45.38a.44.44 0 0 0 .26-.07.22.22 0 0 0 .1-.18z"/></symbol><symbol id="icon-company5" viewBox="0 0 57 32"><path d="M14.27 23.86a.77.77 0 0 1 .2.56.76.76 0 0 1-.08.32.83.83 0 0 1-.23.3 1.39 1.39 0 0 1-.88.24h-1.55v-3.3h1.52a1.38 1.38 0 0 1 .84.22.78.78 0 0 1 .23.27.71.71 0 0 1 .06.34.72.72 0 0 1-.17.5.84.84 0 0 1-.46.27.9.9 0 0 1 .52.28zm-1.82-.5h.65a.66.66 0 0 0 .41-.1.39.39 0 0 0 .11-.15.36.36 0 0 0 .03-.15v-.06a.38.38 0 0 0-.03-.15.4.4 0 0 0-.1-.15.67.67 0 0 0-.38-.1h-.69v.86zm1.13 1.27a.4.4 0 0 0 .12-.15.37.37 0 0 0 .03-.16v-.05a.38.38 0 0 0-.04-.17.41.41 0 0 0-.12-.15.7.7 0 0 0-.4-.12h-.71v.91h.7a.73.73 0 0 0 .43-.11zm3.8.65-.85-1.3h-.32v1.3h-.73v-3.3h1.38a1.43 1.43 0 0 1 .96.28 1.02 1.02 0 0 1 .32.73.99.99 0 0 1-.22.64 1.15 1.15 0 0 1-.65.33l.9 1.32h-.8zm-1.17-1.74h.6c.4 0 .61-.17.61-.5V23a.46.46 0 0 0-.03-.17.5.5 0 0 0-.12-.17.68.68 0 0 0-.47-.14h-.6l.01 1zm5.13 1.07h-1.45l-.25.67h-.76L20.2 22h.83l1.32 3.27h-.76l-.25-.67zm-.2-.5-.52-1.39-.53 1.4h1.05zm5.16 1.17h-.72l-1.61-2.25v2.25h-.72v-3.3h.72l1.62 2.26v-2.26h.72v3.3zm4.12-.8a1.5 1.5 0 0 1-.65.59c-.28.13-.61.2-.96.2h-1.34v-3.3h1.34c.35 0 .68.08.97.21h-.01c.27.13.5.33.65.57a1.78 1.78 0 0 1 0 1.74zm-.83-.07a1.14 1.14 0 0 0 0-1.58 1.32 1.32 0 0 0-.9-.28h-.5v2.14h.5a1.32 1.32 0 0 0 .9-.28zM21.8 3.6s9.3 3.21 9.1 7.87v7.87s-9.3-3.22-9.1-7.87V3.6zm17.39 13.9a13.5 13.5 0 0 1 5.9-2v-2.46a11.95 11.95 0 0 0-5.9 4.45z"/><path d="M38.12 18.25a12.32 12.32 0 0 1 6.97-5.72v-7.1s-13.25 4.58-12.97 11.2v11.2s.6-.2 1.52-.58c0-.36 0-.72.05-1.08a11.35 11.35 0 0 1 4.43-7.93z"/><path d="M36.86 22.4c.07-.77.23-1.54.47-2.29a10.36 10.36 0 0 0-2.8 6.77 36.8 36.8 0 0 0 2.75-1.33l-.21.1a10.62 10.62 0 0 1-.2-3.24zm.53.05a10.17 10.17 0 0 0 .18 3l-.02-.07c3.62-1.98 7.69-5.04 7.53-8.74v-.33c-2.58.27-5 1.3-6.88 2.95a10.02 10.02 0 0 0-.8 3.15l-.01.04z"/></symbol><symbol id="icon-company6" viewBox="0 0 57 32"><path d="M28.5 14.62a1.56 1.56 0 0 1-.33-1.07v-1.53c0-.47.1-.83.32-1.07.22-.25.58-.37 1.1-.37.5 0 .84.1 1.05.31.22.27.33.6.3.92v.36h-.87v-.36a1.8 1.8 0 0 0-.03-.36.34.34 0 0 0-.12-.21.5.5 0 0 0-.28-.09h-.08a.53.53 0 0 0-.3.1.41.41 0 0 0-.14.22 1.74 1.74 0 0 0-.03.36v1.89c-.02.18.02.36.1.53.05.05.11.1.18.12a.48.48 0 0 0 .23.03.47.47 0 0 0 .31-.08.37.37 0 0 0 .13-.23c.02-.12.03-.25.03-.37v-.38h.87v.34a1.4 1.4 0 0 1-.3.97c-.2.23-.55.34-1.05.34s-.88-.12-1.1-.37zm3.64.01c-.22-.24-.34-.58-.34-1.05v-1.61c0-.46.11-.8.34-1.04s.59-.35 1.1-.35c.52 0 .89.12 1.1.35.23.23.34.58.34 1.04v1.61c0 .46-.11.81-.33 1.05s-.6.36-1.1.36-.9-.12-1.11-.36zm1.51-.39a.9.9 0 0 0 .1-.47v-1.98a.87.87 0 0 0-.1-.48.42.42 0 0 0-.17-.12.47.47 0 0 0-.24-.03.49.49 0 0 0-.23.03.42.42 0 0 0-.18.13.85.85 0 0 0-.1.47v1.99a.89.89 0 0 0 .1.48.6.6 0 0 0 .64.11.56.56 0 0 0 .18-.12zm2.08-3.61h.95l.7 2.98.73-2.98h.92l.09 4.3h-.68l-.07-3-.7 3h-.54l-.73-3-.07 3h-.68l.08-4.3zm4.45 0h1.46c.85 0 1.27.4 1.27 1.22 0 .78-.44 1.17-1.33 1.17h-.5v1.91h-.9v-4.3zm1.25 1.84a.7.7 0 0 0 .5-.14.7.7 0 0 0 .13-.48 1.32 1.32 0 0 0-.05-.4.32.32 0 0 0-.06-.11.39.39 0 0 0-.11-.09.91.91 0 0 0-.36-.07h-.4v1.29h.35zm2.79-1.84h.97l1 4.3h-.84l-.2-.99h-.87l-.2 1h-.86l1-4.31zm.83 2.81-.34-1.8-.34 1.8h.68zM47 10.63h.63l1.21 2.45v-2.45h.76v4.3H49l-1.23-2.56v2.56H47v-4.3zm4.36 2.66-1.01-2.66h.85l.61 1.71.58-1.7h.83l-1 2.65v1.64h-.86V13.3zm-21.47 3.53v.22h-.74v1.75h-.3v-1.75h-.75v-.22h1.8zm2.32 1.97h-.25a.1.1 0 0 1-.06-.02.1.1 0 0 1-.04-.04l-.21-.47h-1.03l-.2.47a.13.13 0 0 1-.04.05.1.1 0 0 1-.06.02h-.25l.9-1.98h.32l.92 1.97zm-1.5-.73h.85l-.36-.8a1.28 1.28 0 0 1-.06-.18v-.01l-.04.1-.03.09-.36.8zm3.06.54a1.02 1.02 0 0 0 .32-.03 1.02 1.02 0 0 0 .25-.08v-.44h-.37a.08.08 0 0 1-.04-.02l-.02-.02a.03.03 0 0 1 0-.01v-.16h.7v.76c-.1.07-.23.12-.37.16l-.24.04a2.6 2.6 0 0 1-.26.01h-.01c-.16 0-.31-.02-.46-.07h.01a1.12 1.12 0 0 1-.36-.2.95.95 0 0 1-.23-.31v-.01a.96.96 0 0 1-.08-.4v-.02c0-.15.03-.28.08-.4a.9.9 0 0 1 .23-.31 1 1 0 0 1 .36-.21 1.77 1.77 0 0 1 .95 0 1 1 0 0 1 .34.17l-.08.13a.07.07 0 0 1-.03.02.1.1 0 0 1-.04.01.11.11 0 0 1-.06-.01.9.9 0 0 1-.1-.05h.01a.81.81 0 0 0-.11-.05h-.01a1.03 1.03 0 0 0-.16-.05 1.34 1.34 0 0 0-.22-.01h-.02c-.13 0-.25.02-.35.05a.77.77 0 0 0-.26.16.67.67 0 0 0-.17.24.92.92 0 0 0 0 .67.76.76 0 0 0 .44.4c.12.03.24.04.36.04zm2.89-.03h.99v.22h-1.3v-1.97h.32l-.01 1.75zm2.02.22h-.31v-1.97h.3v1.97zm1.15-1.96a.14.14 0 0 1 .05.03l1.32 1.5V16.8h.27v1.98h-.17a.14.14 0 0 1-.05 0 .16.16 0 0 1-.05-.05l-1.32-1.48v1.53h-.26v-1.97h.21zm3.92-.01v.21h-1.1v.66h.9v.2h-.9v.68h1.1v.22h-1.41v-1.97h1.41zM11.3 4.62l13.75 3.37V19.8L11.3 16.44V4.62zm-.9-1.02V17l15.52 3.8V7.42L10.4 3.62z"/><path d="M18.72 27.04 3.2 23.23V9.83l15.52 3.8v13.4z"/><path d="M10.66 4.46 24.24 7.8l-5.78 5L4.9 9.44l5.77-4.99zm-.26-.85L3.2 9.83l15.52 3.8 7.2-6.21L10.4 3.6zm9.2 22.67 6.32-5.46-6.33-1.56v7.02z"/></symbol><symbol id="icon-diagram" viewBox="0 0 32 32"><path fill="#2196f3" style="fill:var(--color2, #2196f3)" d="M14.93 14.96h1.06v4.8h-1.06v-4.8zm4.26 2.14h1.07v2.66h-1.07V17.1zm-8.53 1.6h1.07v1.06h-1.07V18.7zm-3.2-.54h1.07v1.6H7.46v-1.6z"/><path fill="#212121" style="fill:var(--color1, #212121)" d="M1.6 28.3h25.58a1.6 1.6 0 0 0 1.6-1.6v-2.14a1.6 1.6 0 0 0-1.6-1.6h-.53V9.66l3.03-2.86a1.6 1.6 0 1 0-.74-.75v-.01l-2.3 2.16V6.97a1.6 1.6 0 0 0-1.6-1.6H3.73a1.6 1.6 0 0 0-1.6 1.6v16H1.6A1.6 1.6 0 0 0 0 24.55v2.13a1.6 1.6 0 0 0 1.6 1.6zM30.38 4.83a.53.53 0 0 1 0 1.06.53.53 0 0 1 0-1.06zM3.2 6.97c0-.3.24-.53.53-.53h21.32c.3 0 .54.23.54.53V9.2l-1.07 1.01V8.04A.53.53 0 0 0 24 7.5H4.79a.53.53 0 0 0-.53.53v13.33c0 .3.24.54.54.54h19.19a.53.53 0 0 0 .53-.54V11.7l1.07-1.01v12.28H3.19v-16zM8 13.9a1.6 1.6 0 1 0 1.1 2.75l1.86.93a.54.54 0 0 0 .63-.12l3.94-4.44 3.87 2.9a.53.53 0 0 0 .69-.03l3.36-3.2v8.14H5.33V8.57h18.12v2.66l-3.77 3.57-3.9-2.93a.53.53 0 0 0-.72.07l-4 4.5-1.49-.75c.02-.06.02-.12.02-.19A1.6 1.6 0 0 0 8 13.9zm.53 1.6a.53.53 0 0 1-1.07 0 .53.53 0 0 1 1.07 0zm3.2 8.53h5.33v.53a.53.53 0 0 1-.54.53h-4.26a.53.53 0 0 1-.53-.53v-.53zm-10.66.53c0-.3.24-.53.53-.53h9.06v.53a1.6 1.6 0 0 0 1.6 1.6h4.27a1.6 1.6 0 0 0 1.6-1.6v-.53h9.06c.3 0 .53.24.53.53v2.13a.53.53 0 0 1-.53.54H1.6a.53.53 0 0 1-.53-.54v-2.13z"/></symbol><symbol id="icon-facebook" viewBox="0 0 32 32"><path d="M21.33 5.31h2.92V.23C23.75.15 22.01 0 19.99 0c-4.2 0-7.1 2.65-7.1 7.52V12H8.26v5.69h4.65V32h5.7V17.69h4.46l.7-5.69H18.6V8.08c0-1.64.45-2.77 2.74-2.77z"/></symbol><symbol id="icon-insta" viewBox="0 0 32 32"><path d="M31.97 9.4a11.7 11.7 0 0 0-.74-3.87 7.84 7.84 0 0 0-1.85-2.84A7.9 7.9 0 0 0 26.6.86l-.06-.02A11.7 11.7 0 0 0 22.66.1c-1.71-.08-2.25-.1-6.6-.1-4.34 0-4.89.02-6.6.1-1.7.07-2.86.34-3.88.74a7.85 7.85 0 0 0-2.83 1.85A7.9 7.9 0 0 0 .91 5.46l-.02.06A11.7 11.7 0 0 0 .16 9.4c-.08 1.71-.1 2.26-.1 6.6 0 4.35.02 4.9.09 6.6.08 1.7.35 2.87.74 3.88a7.92 7.92 0 0 0 1.85 2.84c.8.81 1.77 1.44 2.84 1.84 1.01.4 2.18.67 3.88.75 1.7.07 2.25.09 6.6.09 4.34 0 4.88-.02 6.59-.1a11.7 11.7 0 0 0 3.88-.74 8.24 8.24 0 0 0 4.66-4.63l.02-.05c.4-1.02.67-2.18.75-3.88.07-1.7.09-2.25.09-6.6s0-4.88-.08-6.6zm-2.88 13.07a8.86 8.86 0 0 1-.55 2.97 5.34 5.34 0 0 1-3 3.03l-.04.01c-.56.22-1.41.48-2.97.55-1.69.07-2.2.1-6.46.1-4.27 0-4.79-.02-6.47-.1a8.78 8.78 0 0 1-2.97-.55 4.95 4.95 0 0 1-1.83-1.2 4.98 4.98 0 0 1-1.19-1.8l-.01-.03a8.84 8.84 0 0 1-.55-2.97c-.07-1.69-.1-2.2-.1-6.46 0-4.27.03-4.79.1-6.47.07-1.56.33-2.4.55-2.97a4.9 4.9 0 0 1 1.2-1.84 4.97 4.97 0 0 1 1.8-1.18l.04-.01A8.8 8.8 0 0 1 9.61 3c1.69-.07 2.2-.1 6.46-.1 4.28 0 4.78.03 6.47.1 1.56.07 2.4.33 2.97.55a4.91 4.91 0 0 1 1.83 1.2c.53.51.94 1.14 1.2 1.83.22.56.48 1.41.55 2.97.07 1.69.1 2.2.1 6.47 0 4.26-.03 4.76-.1 6.45z"/><path d="M16.06 7.78A8.22 8.22 0 0 0 7.84 16a8.22 8.22 0 0 0 16.44.01 8.22 8.22 0 0 0-8.22-8.23zm0 13.55a5.33 5.33 0 0 1 0-10.66 5.33 5.33 0 1 1 0 10.67zM26.52 7.46a1.92 1.92 0 0 1-3.84 0 1.92 1.92 0 0 1 3.84 0z"/></symbol><symbol id="icon-linkedin" viewBox="0 0 32 32"><path d="M32 32V20.26c0-5.74-1.24-10.16-7.95-10.16-3.22 0-5.39 1.77-6.27 3.45h-.1v-2.92h-6.36V32h6.62V21.42c0-2.79.53-5.48 3.98-5.48 3.4 0 3.45 3.18 3.45 5.66V32H32zM.52 10.63h6.63V32H.53V10.63zM3.84 0A3.84 3.84 0 0 0 0 3.84a3.88 3.88 0 0 0 3.84 3.88c2.12 0 3.85-1.76 3.85-3.88S5.96 0 3.84 0z"/></symbol><symbol id="icon-mailto" viewBox="0 0 43 32"><path d="M38.67 0H4a4 4 0 0 0-4 4v24a4 4 0 0 0 4 4h34.67a4 4 0 0 0 4-4V4a4 4 0 0 0-4-4zm0 2.67c.18 0 .35.03.5.1L21.34 18.24 3.5 2.77c.15-.06.33-.1.51-.1h34.67zm0 26.66H4A1.33 1.33 0 0 1 2.67 28V5.59L20.46 21a1.33 1.33 0 0 0 1.75 0L40 5.59V28c0 .74-.6 1.33-1.33 1.33z"/></symbol><symbol id="icon-tel" viewBox="0 0 20 32"><path d="M17 0H3a3 3 0 0 0-3 3v26a3 3 0 0 0 3 3h14a3 3 0 0 0 3-3V3a3 3 0 0 0-3-3zM3 2h14a1 1 0 0 1 1 1v21H2V3a1 1 0 0 1 1-1zm14 28H3a1 1 0 0 1-1-1v-3h16v3a1 1 0 0 1-1 1z"/><path fill="#757575" style="fill:var(--color4, #757575)" d="M4.7 27.48a.89.89 0 0 1 0 1.32 1.05 1.05 0 0 1-1.4 0 .89.89 0 0 1 0-1.32 1.05 1.05 0 0 1 1.4 0z"/></symbol><symbol id="icon-twitter" viewBox="0 0 32 32"><path d="M32 6.08c-1.1.5-2.38.86-3.71 1.03h-.07a6.56 6.56 0 0 0 2.87-3.58l.01-.04a12.88 12.88 0 0 1-4.07 1.57l-.09.02A6.56 6.56 0 0 0 15.6 9.55c0 .52.04 1.02.15 1.5A18.57 18.57 0 0 1 2.23 4.2a6.52 6.52 0 0 0-.9 3.3v.01a6.57 6.57 0 0 0 2.91 5.45 6.45 6.45 0 0 1-3-.82l.04.01v.08a6.6 6.6 0 0 0 5.21 6.44h.05a6.4 6.4 0 0 1-1.67.22h-.06c-.41 0-.84-.02-1.24-.11a6.62 6.62 0 0 0 6.13 4.57 13.1 13.1 0 0 1-8.12 2.8h-.07c-.53 0-1.06-.04-1.57-.1H0A18.3 18.3 0 0 0 10 29h.07c12.07 0 18.67-10 18.67-18.67 0-.29-.01-.57-.03-.85a13.2 13.2 0 0 0 3.26-3.35l.03-.05z"/></symbol><symbol id="icon-modal-close" viewBox="0 0 32 32"><path d="M32 3.22 28.78 0 16 12.78 3.22 0 0 3.22 12.78 16 0 28.78 3.22 32 16 19.22 28.78 32 32 28.78 19.22 16 32 3.22z"/></symbol><symbol id="icon-modal-mail" viewBox="0 0 32 32"><path d="M26.67 5.33H5.33A2.66 2.66 0 0 0 2.68 8l-.01 16c0 1.47 1.2 2.67 2.67 2.67h21.33c1.46 0 2.66-1.2 2.66-2.67V8c0-1.47-1.2-2.67-2.66-2.67zM26.13 11l-9.42 5.9a1.35 1.35 0 0 1-1.42 0L5.87 11a1.13 1.13 0 1 1 1.2-1.92L16 14.67l8.93-5.59a1.13 1.13 0 1 1 1.2 1.92z"/></symbol><symbol id="icon-modal-name" viewBox="0 0 32 32"><path d="M16 16a5.33 5.33 0 1 0 0-10.66A5.33 5.33 0 0 0 16 16zm0 2.67c-3.56 0-10.67 1.78-10.67 5.33v1.33c0 .74.6 1.34 1.34 1.34h18.66c.74 0 1.34-.6 1.34-1.34V24c0-3.55-7.11-5.33-10.67-5.33z"/></symbol><symbol id="icon-modal-tel" viewBox="0 0 32 32"><path d="m24.88 19.77-3.27-.37a2.56 2.56 0 0 0-2.1.73l-2.37 2.37a19.36 19.36 0 0 1-8.48-8.48l2.38-2.38a2.56 2.56 0 0 0 .73-2.1l-.37-3.25a2.58 2.58 0 0 0-2.56-2.28H6.6a2.55 2.55 0 0 0-2.57 2.67 21.86 21.86 0 0 0 20.44 20.44 2.55 2.55 0 0 0 2.67-2.57v-2.23a2.55 2.55 0 0 0-2.27-2.55z"/></symbol><symbol id="icon-footer-send" viewBox="0 0 32 32"><path fill="#fff" style="fill:var(--color1, #fff)" d="M32 0 0 18l10.23 3.79L26 7 14 23.19h.01H14V32l5.74-6.7L27 28l5-28z"/></symbol><symbol id="icon-checkbox" viewBox="0 0 32 32"><path d="M30.34 3.56v24.88H3.8V3.57h26.55zm0-3.56H3.8C1.71 0 0 1.6 0 3.56v24.88C0 30.4 1.7 32 3.8 32h26.54c2.09 0 3.8-1.6 3.8-3.56V3.56c0-1.96-1.71-3.56-3.8-3.56z"/></symbol><symbol id="icon-checkmark" viewBox="0 0 32 32"><path fill="#fff" style="fill:var(--color1, #fff);stroke:var(--color1, #fff)" stroke="#fff" stroke-width=".43" d="m6.3 16.54-.14-.14-2.2 2.08 7.76 7.41 16.32-15.56-2.19-2.1L11.72 21.7l-5.41-5.16z"/></symbol><symbol id="icon-mobile-burger" viewBox="0 0 32 32"><path d="M6.4 11.73V9.6h19.2v2.13H6.4zm0 5.34h19.2v-2.14H6.4v2.14zm0 5.33h19.2v-2.13H6.4v2.13z"/></symbol><symbol id="icon-mobile-close" viewBox="0 0 32 32"><path d="m23.73 10.3-1.5-1.5-5.96 5.96L10.3 8.8l-1.5 1.5 5.96 5.97-5.96 5.96 1.5 1.5 5.97-5.96 5.96 5.96 1.5-1.5-5.96-5.96 5.96-5.97z"/></symbol></defs></svg>